<svg width="20" height="20" viewBox="0 0 20 20" fill="none" xmlns="http://www.w3.org/2000/svg">
<path fill-rule="evenodd" clip-rule="evenodd" d="M12.4207 13.5997C11.2918 14.4773 9.87327 14.9998 8.33268 14.9998C4.65078 14.9998 1.66602 12.0151 1.66602 8.33317C1.66602 4.65127 4.65078 1.6665 8.33268 1.6665C12.0146 1.6665 14.9993 4.65127 14.9993 8.33317C14.9993 9.87376 14.4768 11.2923 13.5992 12.4212L18.0886 16.9106C18.414 17.236 18.414 17.7637 18.0886 18.0891C17.7632 18.4145 17.2355 18.4145 16.9101 18.0891L12.4207 13.5997ZM13.3327 8.33317C13.3327 11.0946 11.0941 13.3332 8.33268 13.3332C5.57126 13.3332 3.33268 11.0946 3.33268 8.33317C3.33268 5.57175 5.57126 3.33317 8.33268 3.33317C11.0941 3.33317 13.3327 5.57175 13.3327 8.33317Z" fill="#777E91"/>
</svg>
