<svg width="28" height="28" viewBox="0 0 28 28" fill="none" xmlns="http://www.w3.org/2000/svg">
<g clip-path="url(#clip0)">
<g filter="url(#filter0_d)">
<path d="M1.66797 7C1.66797 5.34315 3.01111 4 4.66797 4H23.3346C24.9915 4 26.3346 5.34315 26.3346 7C26.3346 7.36819 26.0362 7.66667 25.668 7.66667H21.0013C17.5035 7.66667 14.668 10.5022 14.668 14C14.668 17.4978 17.5035 20.3333 21.0013 20.3333H25.668C26.0362 20.3333 26.3346 20.6318 26.3346 21C26.3346 22.6569 24.9915 24 23.3346 24H4.66797C3.01111 24 1.66797 22.6569 1.66797 21V7Z" stroke="#777E90" shape-rendering="crispEdges"/>
</g>
<path d="M21 11H25.6667C26.0349 11 26.3333 11.2985 26.3333 11.6667V16.3333C26.3333 16.7015 26.0349 17 25.6667 17H21C19.3431 17 18 15.6569 18 14C18 12.3431 19.3431 11 21 11ZM21 15.6667C21.9205 15.6667 22.6667 14.9205 22.6667 14C22.6667 13.0795 21.9205 12.3333 21 12.3333C20.0795 12.3333 19.3333 13.0795 19.3333 14C19.3333 14.9205 20.0795 15.6667 21 15.6667Z" stroke="#777E90"/>
</g>
<defs>
<filter id="filter0_d" x="-0.832031" y="1.5" width="29.6667" height="25" filterUnits="userSpaceOnUse" color-interpolation-filters="sRGB">
<feFlood flood-opacity="0" result="BackgroundImageFix"/>
<feColorMatrix in="SourceAlpha" type="matrix" values="0 0 0 0 0 0 0 0 0 0 0 0 0 0 0 0 0 0 127 0" result="hardAlpha"/>
<feOffset/>
<feGaussianBlur stdDeviation="1"/>
<feComposite in2="hardAlpha" operator="out"/>
<feColorMatrix type="matrix" values="0 0 0 0 0.247059 0 0 0 0 1 0 0 0 0 1 0 0 0 0.4 0"/>
<feBlend mode="normal" in2="BackgroundImageFix" result="effect1_dropShadow"/>
<feBlend mode="normal" in="SourceGraphic" in2="effect1_dropShadow" result="shape"/>
</filter>
<clipPath id="clip0">
<rect width="28" height="28" fill="white"/>
</clipPath>
</defs>
</svg>
