<svg width="39" height="39" viewBox="0 0 39 39" fill="none" xmlns="http://www.w3.org/2000/svg">
<path d="M0.5 4C0.5 2.067 2.067 0.5 4 0.5H35C36.933 0.5 38.5 2.067 38.5 4V35C38.5 36.933 36.933 38.5 35 38.5H4C2.067 38.5 0.5 36.933 0.5 35V4Z" fill="white" stroke="white"/>
<path d="M20 22L19.2929 22.7071L20 23.4142L20.7071 22.7071L20 22ZM21 13C21 12.4477 20.5523 12 20 12C19.4477 12 19 12.4477 19 13L21 13ZM14.2929 17.7071L19.2929 22.7071L20.7071 21.2929L15.7071 16.2929L14.2929 17.7071ZM20.7071 22.7071L25.7071 17.7071L24.2929 16.2929L19.2929 21.2929L20.7071 22.7071ZM21 22L21 13L19 13L19 22L21 22Z" fill="#9B9B9B"/>
<path d="M13 24L13 25C13 26.1046 13.8954 27 15 27L25 27C26.1046 27 27 26.1046 27 25V24" stroke="#9B9B9B" stroke-width="2"/>
</svg>
