<svg width="39" height="39" viewBox="0 0 39 39" fill="none" xmlns="http://www.w3.org/2000/svg">
<path d="M0.5 4C0.5 2.067 2.067 0.5 4 0.5H35C36.933 0.5 38.5 2.067 38.5 4V35C38.5 36.933 36.933 38.5 35 38.5H4C2.067 38.5 0.5 36.933 0.5 35V4Z" fill="white" stroke="white"/>
<path d="M18 27L17.2929 26.2929L16.5858 27L17.2929 27.7071L18 27ZM21.2929 22.2929L17.2929 26.2929L18.7071 27.7071L22.7071 23.7071L21.2929 22.2929ZM17.2929 27.7071L21.2929 31.7071L22.7071 30.2929L18.7071 26.2929L17.2929 27.7071Z" fill="#9B9B9B"/>
<path d="M26.0622 16.5C26.6766 17.5641 27 18.7712 27 20C27 21.2288 26.6766 22.4359 26.0622 23.5C25.4478 24.5641 24.5641 25.4478 23.5 26.0622C22.4359 26.6766 21.2288 27 20 27" stroke="#9B9B9B" stroke-width="2" stroke-linecap="round"/>
<path d="M22 13L22.7071 13.7071L23.4142 13L22.7071 12.2929L22 13ZM18.7071 17.7071L22.7071 13.7071L21.2929 12.2929L17.2929 16.2929L18.7071 17.7071ZM22.7071 12.2929L18.7071 8.29289L17.2929 9.70711L21.2929 13.7071L22.7071 12.2929Z" fill="#9B9B9B"/>
<path d="M13.9378 23.5C13.3234 22.4359 13 21.2288 13 20C13 18.7712 13.3234 17.5641 13.9378 16.5C14.5522 15.4359 15.4359 14.5522 16.5 13.9378C17.5641 13.3234 18.7712 13 20 13" stroke="#9B9B9B" stroke-width="2" stroke-linecap="round"/>
</svg>
