<svg width="103" height="26" viewBox="0 0 103 26" fill="none" xmlns="http://www.w3.org/2000/svg">
<path d="M0 4C0 1.79086 1.79086 0 4 0H99C101.209 0 103 1.79086 103 4V22C103 24.2091 101.209 26 99 26H4C1.79086 26 0 24.2091 0 22V4Z" fill="#45B36B"/>
<path d="M10.796 13.344V11.232H11.912C12.728 11.232 13.076 11.64 13.076 12.288C13.076 12.936 12.728 13.344 11.912 13.344H10.796ZM15.164 12.288C15.164 10.74 14.132 9.576 12.068 9.576H8.744V18H10.796V14.976H12.068C14.216 14.976 15.164 13.68 15.164 12.288ZM16.1963 14.604C16.1963 16.932 17.7203 18.084 19.6763 18.084C21.6203 18.084 23.2523 16.932 23.2523 14.604V9.576H21.2003V14.616C21.2003 15.612 20.6843 16.188 19.7123 16.188C18.7403 16.188 18.2483 15.612 18.2483 14.616V9.576H16.1963V14.604ZM29.1452 12.312C29.1452 12.972 28.7852 13.368 28.0172 13.368H26.7452V11.28H28.0172C28.7852 11.28 29.1452 11.688 29.1452 12.312ZM24.6932 9.576V18H26.7452V14.82H27.2372L28.9892 18H31.3052L29.3612 14.664C30.6572 14.28 31.2332 13.284 31.2332 12.228C31.2332 10.764 30.2012 9.576 28.1372 9.576H24.6932ZM32.1733 13.776C32.1733 16.296 33.9253 18.06 36.4093 18.06C38.4133 18.06 39.9253 16.944 40.4053 15.12H38.1493C37.8013 15.84 37.1653 16.2 36.3853 16.2C35.1253 16.2 34.2613 15.264 34.2613 13.776C34.2613 12.288 35.1253 11.352 36.3853 11.352C37.1653 11.352 37.8013 11.712 38.1493 12.432H40.4053C39.9253 10.608 38.4133 9.48 36.4093 9.48C33.9253 9.48 32.1733 11.256 32.1733 13.776ZM46.906 18H48.958V9.576H46.906V12.876H43.714V9.576H41.662V18H43.714V14.532H46.906V18ZM56.1873 18H58.3593L55.3113 9.576H52.9353L49.8873 18H52.0353L52.5393 16.512H55.6833L56.1873 18ZM55.1553 14.928H53.0793L54.1113 11.844L55.1553 14.928ZM65.407 15.492C65.407 12.672 61.243 13.332 61.243 11.868C61.243 11.34 61.615 11.088 62.107 11.1C62.659 11.112 63.043 11.436 63.079 11.976H65.299C65.215 10.368 63.979 9.456 62.143 9.456C60.379 9.456 59.071 10.344 59.071 11.94C59.047 14.928 63.259 14.088 63.259 15.648C63.259 16.14 62.875 16.44 62.275 16.44C61.699 16.44 61.291 16.128 61.231 15.48H59.047C59.107 17.184 60.523 18.084 62.335 18.084C64.303 18.084 65.407 16.908 65.407 15.492ZM66.6698 18H68.7218V9.576H66.6698V18ZM75.6928 9.576V14.796L72.2608 9.576H70.2088V18H72.2608V12.804L75.6928 18H77.7448V9.576H75.6928ZM83.1683 9.48C80.6483 9.48 78.8843 11.256 78.8843 13.776C78.8843 16.296 80.6603 18.06 83.1803 18.06C85.4003 18.06 86.8043 16.608 87.2363 15.156V13.248H82.7723V14.76H85.3763C85.0643 15.708 84.3563 16.248 83.3363 16.248C81.8603 16.248 80.9723 15.336 80.9723 13.776C80.9723 12.312 81.8483 11.376 83.1683 11.376C83.9363 11.376 84.5123 11.676 84.8243 12.24H87.0923C86.6483 10.512 85.1843 9.48 83.1683 9.48ZM91.6359 15.024H93.3759L93.6159 9.276H91.3959L91.6359 15.024ZM93.7479 16.992C93.7479 16.356 93.2559 15.864 92.5359 15.864C91.8039 15.864 91.3119 16.356 91.3119 16.992C91.3119 17.604 91.8039 18.096 92.5359 18.096C93.2559 18.096 93.7479 17.604 93.7479 16.992Z" fill="#FCFCFD"/>
</svg>
