<svg width="56" height="24" viewBox="0 0 56 24" fill="none" xmlns="http://www.w3.org/2000/svg">
<path d="M0.199219 12C0.199219 5.37258 5.5718 0 12.1992 0H43.1992C49.8266 0 55.1992 5.37258 55.1992 12V12C55.1992 18.6274 49.8266 24 43.1992 24H12.1992C5.5718 24 0.199219 18.6274 0.199219 12V12Z" fill="#27324F"/>
<path fill-rule="evenodd" clip-rule="evenodd" d="M16.1999 18.6668C19.8818 18.6668 22.8665 15.6821 22.8665 12.0002C22.8665 8.31826 19.8818 5.3335 16.1999 5.3335C12.518 5.3335 9.5332 8.31826 9.5332 12.0002C9.5332 15.6821 12.518 18.6668 16.1999 18.6668ZM20.4131 15.2706C21.1151 14.3675 21.5332 13.2327 21.5332 12.0002C21.5332 9.28042 19.4974 7.03616 16.8665 6.70809V9.41751C18.0167 9.71354 18.8665 10.7576 18.8665 12.0002C18.8665 12.4947 18.7319 12.9578 18.4973 13.3549L20.4131 15.2706ZM19.4702 16.2134L17.5545 14.2977C17.1575 14.5322 16.6944 14.6668 16.1999 14.6668C15.7054 14.6668 15.2423 14.5322 14.8453 14.2977L12.9295 16.2134C13.8326 16.9155 14.9674 17.3335 16.1999 17.3335C17.4323 17.3335 18.5671 16.9155 19.4702 16.2134ZM13.5332 12.0002C13.5332 12.4947 13.6678 12.9578 13.9025 13.3549L11.9867 15.2706C11.2846 14.3675 10.8665 13.2327 10.8665 12.0002C10.8665 9.28042 12.9023 7.03616 15.5332 6.70809V9.41751C14.3831 9.71354 13.5332 10.7576 13.5332 12.0002ZM16.1999 13.3335C16.9362 13.3335 17.5332 12.7365 17.5332 12.0002C17.5332 11.2638 16.9362 10.6668 16.1999 10.6668C15.4635 10.6668 14.8665 11.2638 14.8665 12.0002C14.8665 12.7365 15.4635 13.3335 16.1999 13.3335Z" fill="#FCFCFD"/>
<path d="M34.4152 12.46H32.2312L32.6272 10.612H34.8112L34.4152 12.46ZM33.6592 16H35.2552L35.6872 13.96H37.5352V12.46H36.0112L36.4072 10.612H38.2672V9.112H36.7312L37.1512 7.12H35.5552L35.1352 9.112H32.9512L33.3712 7.12H31.7872L31.3672 9.112H29.2432V10.612H31.0432L30.6472 12.46H28.5112V13.96H30.3232L29.8912 16H31.4752L31.9072 13.96H34.0912L33.6592 16ZM43.6038 16H45.2838V14.296H46.3398V12.832H45.2838V7.36H43.3278L39.4038 12.976V14.296H43.6038V16ZM41.2518 12.832L43.7118 9.16V12.832H41.2518Z" fill="#FCFCFD"/>
</svg>
