<svg width="56" height="24" viewBox="0 0 56 24" fill="none" xmlns="http://www.w3.org/2000/svg">
<path d="M0.599609 12C0.599609 5.37258 5.97219 0 12.5996 0H43.5996C50.227 0 55.5996 5.37258 55.5996 12V12C55.5996 18.6274 50.227 24 43.5996 24H12.5996C5.97219 24 0.599609 18.6274 0.599609 12V12Z" fill="#27324F"/>
<path fill-rule="evenodd" clip-rule="evenodd" d="M16.6003 18.6668C20.2822 18.6668 23.2669 15.6821 23.2669 12.0002C23.2669 8.31826 20.2822 5.3335 16.6003 5.3335C12.9184 5.3335 9.93359 8.31826 9.93359 12.0002C9.93359 15.6821 12.9184 18.6668 16.6003 18.6668ZM20.8135 15.2706C21.5155 14.3675 21.9336 13.2327 21.9336 12.0002C21.9336 9.28042 19.8978 7.03616 17.2669 6.70809V9.41751C18.4171 9.71354 19.2669 10.7576 19.2669 12.0002C19.2669 12.4947 19.1323 12.9578 18.8977 13.3549L20.8135 15.2706ZM19.8706 16.2134L17.9548 14.2977C17.5578 14.5322 17.0948 14.6668 16.6003 14.6668C16.1057 14.6668 15.6427 14.5322 15.2457 14.2977L13.3299 16.2134C14.233 16.9155 15.3678 17.3335 16.6003 17.3335C17.8327 17.3335 18.9675 16.9155 19.8706 16.2134ZM13.9336 12.0002C13.9336 12.4947 14.0682 12.9578 14.3028 13.3549L12.3871 15.2706C11.685 14.3675 11.2669 13.2327 11.2669 12.0002C11.2669 9.28042 13.3027 7.03616 15.9336 6.70809V9.41751C14.7834 9.71354 13.9336 10.7576 13.9336 12.0002ZM16.6003 13.3335C17.3366 13.3335 17.9336 12.7365 17.9336 12.0002C17.9336 11.2638 17.3366 10.6668 16.6003 10.6668C15.8639 10.6668 15.2669 11.2638 15.2669 12.0002C15.2669 12.7365 15.8639 13.3335 16.6003 13.3335Z" fill="#FCFCFD"/>
<path d="M34.8156 12.46H32.6316L33.0276 10.612H35.2116L34.8156 12.46ZM34.0596 16H35.6556L36.0876 13.96H37.9356V12.46H36.4116L36.8076 10.612H38.6676V9.112H37.1316L37.5516 7.12H35.9556L35.5356 9.112H33.3516L33.7716 7.12H32.1876L31.7676 9.112H29.6436V10.612H31.4436L31.0476 12.46H28.9116V13.96H30.7236L30.2916 16H31.8756L32.3076 13.96H34.4916L34.0596 16ZM40.3322 7.228V12.364H41.9402C42.1202 11.824 42.5642 11.44 43.2602 11.44C44.2082 11.44 44.7002 11.98 44.7002 12.964C44.7002 13.888 44.2562 14.584 43.2722 14.584C42.4562 14.584 41.9642 14.14 41.8202 13.528H40.1882C40.3322 14.956 41.4122 16 43.2962 16C45.2882 16 46.3202 14.728 46.3202 12.94C46.3202 11.584 45.6242 10.048 43.5842 10.048C42.8522 10.048 42.1922 10.36 41.8682 10.756V8.704H45.7562V7.228H40.3322Z" fill="#FCFCFD"/>
</svg>
