<svg width="55" height="24" viewBox="0 0 55 24" fill="none" xmlns="http://www.w3.org/2000/svg">
<path d="M0.800781 12C0.800781 5.37258 6.17336 0 12.8008 0H42.8008C49.4282 0 54.8008 5.37258 54.8008 12V12C54.8008 18.6274 49.4282 24 42.8008 24H12.8008C6.17336 24 0.800781 18.6274 0.800781 12V12Z" fill="#45B36B"/>
<path fill-rule="evenodd" clip-rule="evenodd" d="M17.0421 12.6669L16.3855 16.6066L20.1938 11.3335H16.5609L17.2175 7.3938L13.4092 12.6669H17.0421ZM19.0004 4.8066C19.1163 4.11151 18.215 3.73541 17.8024 4.30668L11.5649 12.9432C11.2465 13.3841 11.5615 14.0002 12.1054 14.0002H15.4682L14.6026 19.1938C14.4867 19.8889 15.388 20.265 15.8006 19.6937L22.0381 11.0572C22.3565 10.6163 22.0415 10.0002 21.4977 10.0002H18.1348L19.0004 4.8066Z" fill="#FCFCFD"/>
<path d="M35.0168 12.46H32.8328L33.2288 10.612H35.4128L35.0168 12.46ZM34.2608 16H35.8568L36.2888 13.96H38.1368V12.46H36.6128L37.0088 10.612H38.8688V9.112H37.3328L37.7528 7.12H36.1568L35.7368 9.112H33.5528L33.9728 7.12H32.3888L31.9688 9.112H29.8448V10.612H31.6448L31.2488 12.46H29.1128V13.96H30.9248L30.4928 16H32.0768L32.5088 13.96H34.6928L34.2608 16ZM40.1014 9.556H41.7454C41.8054 9.004 42.1534 8.476 42.9694 8.476C43.7374 8.476 44.1574 8.884 44.1574 9.568C44.1574 10.432 43.4374 10.708 42.4534 10.708H42.1054V12.088H42.4534C43.7014 12.088 44.3254 12.448 44.3254 13.432C44.3254 14.128 43.8934 14.656 43.0534 14.656C42.1534 14.656 41.6494 14.116 41.6134 13.36H39.9814C40.0534 15.196 41.3614 16.06 43.0894 16.06C44.9254 16.06 45.9334 15.004 45.9334 13.576C45.9334 12.388 45.3454 11.668 44.4574 11.392V11.344C45.0934 11.128 45.7774 10.456 45.7774 9.364C45.7774 8.068 44.8174 7.048 43.0174 7.048C41.3374 7.048 40.1854 7.936 40.1014 9.556Z" fill="#FCFCFD"/>
</svg>
