<svg width="40" height="41" viewBox="0 0 40 41" fill="none" xmlns="http://www.w3.org/2000/svg">
<path fill-rule="evenodd" clip-rule="evenodd" d="M22.0909 15.7652C22.4968 15.3906 23.1294 15.4159 23.504 15.8217L26.7348 19.3217C27.0884 19.7047 27.0884 20.2952 26.7348 20.6782L23.504 24.1783C23.1294 24.5841 22.4968 24.6094 22.091 24.2348C21.6851 23.8602 21.6598 23.2276 22.0344 22.8217L23.716 21L14 21C13.4477 21 13 20.5523 13 20C13 19.4477 13.4477 19 14 19L23.716 19L22.0344 17.1783C21.6598 16.7725 21.6851 16.1398 22.0909 15.7652Z" fill="#777E91"/>
<rect x="1" y="1.5" width="38" height="38" rx="19" stroke="#E6E8EC" stroke-width="2"/>
</svg>
