<svg width="16" height="16" viewBox="0 0 16 16" fill="none" xmlns="http://www.w3.org/2000/svg">
<path fill-rule="evenodd" clip-rule="evenodd" d="M3.52925 3.52851C3.7896 3.26816 4.21171 3.26816 4.47206 3.52851L8.00065 7.05711L11.5292 3.52851C11.7896 3.26816 12.2117 3.26816 12.4721 3.52851C12.7324 3.78886 12.7324 4.21097 12.4721 4.47132L8.94346 7.99992L12.4721 11.5285C12.7324 11.7889 12.7324 12.211 12.4721 12.4713C12.2117 12.7317 11.7896 12.7317 11.5292 12.4713L8.00065 8.94273L4.47206 12.4713C4.21171 12.7317 3.7896 12.7317 3.52925 12.4713C3.2689 12.211 3.2689 11.7889 3.52925 11.5285L7.05784 7.99992L3.52925 4.47132C3.2689 4.21097 3.2689 3.78886 3.52925 3.52851Z" fill="#FCFCFD"/>
</svg>
